<?xml version="1.0" standalone="no"?><!DOCTYPE svg PUBLIC "-//W3C//DTD SVG 1.1//EN" "http://www.w3.org/Graphics/SVG/1.1/DTD/svg11.dtd"><svg t="1516068131111" class="icon" style="" viewBox="0 0 1024 1024" version="1.1" xmlns="http://www.w3.org/2000/svg" p-id="1129" xmlns:xlink="http://www.w3.org/1999/xlink" width="32" height="32"><defs><style type="text/css"></style></defs><path d="M968.93794 380.64023c-47.679929-61.60815-140.562363-57.473993-245.041926-55.174624 2.164293-24.879644 4.328585-49.767474 6.490831-74.647117C749.924831 129.002073 724.122165 30.385031 624.905466 12.268418c-24.645306-4.501524-56.06183-1.180895-74.648141 6.490831-49.164746 20.294209-64.754816 67.862597-74.648141 128.200824-5.903453 36.001959 4.783956 76.93523-3.245927 108.726284-10.19213 40.355103-41.145096 70.320579-73.025177 89.25379-38.410821 22.810518-88.008426 36.735669-139.558499 45.438888-82.340333 13.898545-195.625446-28.15013-223.944422 38.947034-12.464893 29.534663-4.867868 86.806042-4.867868 124.954897 0 96.814999 0 193.662745 0 290.477744-0.005117 55.180763-3.911076 101.821013 27.587312 124.954897 31.44313 23.094998 171.513282 11.845793 227.191372 11.359722 0-180.109054 0-360.27746 0-540.388561 106.283652-5.685489 215.69248-81.182974 240.170988-170.392762 18.506493-67.437925-14.82259-173.256996 43.814901-199.600991 123.635855-55.552224 115.662253 128.143519 102.234429 212.582653-3.245927 32.452109-6.490831 64.913429-9.736758 97.366561 0 1.623987 0 3.245927 0 4.867868 86.783529-3.323699 221.038232-26.939559 264.514419 30.833239 23.946388 31.821753 24.672936 94.470605 11.360745 139.558499C912.747173 641.780809 835.534628 848.068082 778.13636 893.414873c-34.310434 27.107381-67.61905 27.612894-122.396631 27.612894-95.209432 0-190.415794 3.244904-285.609877 4.867868 0 18.388812 18.378579 54.581106 0 55.1736 144.982022-4.673439 236.322333 3.921309 372.58374-4.113691 27.016307-1.593288 72.847122-39.301098 88.285742-59.173704 24.644283-31.722492 37.581943-71.28965 58.421574-107.104343 41.490973-71.315232 78.411861-155.88228 102.236476-241.794975C1010.134201 502.246869 1002.814492 424.414199 968.93794 380.64023L968.93794 380.64023zM230.570329 925.896658c-45.974078 0-91.962481 0-137.936559 0-15.595186-25.493627-6.490831-92.343151-6.490831-129.822764 0.541329-115.205858 1.082658-230.446509 1.622964-345.653391 21.596877-12.5662 109.011786-5.314029 142.804427-4.867868C230.570329 605.649913 230.570329 765.798357 230.570329 925.896658L230.570329 925.896658z" p-id="1130" fill="#1296db"></path></svg>
