<?xml version="1.0" standalone="no"?><!DOCTYPE svg PUBLIC "-//W3C//DTD SVG 1.1//EN" "http://www.w3.org/Graphics/SVG/1.1/DTD/svg11.dtd"><svg class="icon" width="32px" height="32.00px" viewBox="0 0 1024 1024" version="1.1" xmlns="http://www.w3.org/2000/svg"><path fill="#24adf8" d="M507.050667 973.340444c-24.064 0-46.776889-6.684444-75.918223-22.343111C96.554667 771.157333 98.062222 638.065778 101.688889 316.529778l0.099555-9.045334c0.369778-35.555556 0.782222-73.699556 0.782223-114.830222 0-18.773333 12.273778-35.057778 30.549333-40.533333a2503.566222 2503.566222 0 0 1 171.818667-44.515556c60.743111-13.553778 127.957333-22.257778 199.793777-25.870222l2.119112-0.042667c1.592889 0 3.185778 0.085333 4.764444 0.256 141.027556 15.118222 247.011556 35.427556 365.767111 70.101334 18.147556 5.276444 30.848 21.944889 30.876445 40.547555 0.099556 48.810667 0.711111 93.340444 1.28 134.215111l0.028444 2.019556c4.736 334.421333 6.328889 447.089778-327.125333 622.791111-28.572444 15.018667-51.811556 21.717333-75.392 21.717333z m-0.199111-863.203555c-70.926222 3.541333-136.533333 12.032-195.712 25.216-59.904 13.383111-117.048889 28.188444-169.856 44.017778a13.980444 13.980444 0 0 0-10.268445 13.283555c0 41.244444-0.412444 79.488-0.782222 115.128889l-0.099556 9.059556c-3.697778 327.196444-4.949333 437.404444 314.467556 609.095111 24.732444 13.297778 43.406222 18.958222 62.464 18.958222 18.702222 0 37.873778-5.688889 62.136889-18.474667 318.023111-167.580444 316.743111-258.602667 311.950222-597.233777l-0.028444-2.019556c-0.568889-40.974222-1.180444-85.617778-1.28-134.556444 0-6.144-4.181333-11.477333-10.382223-13.283556C752.384 145.180444 647.836444 125.155556 508.586667 110.222222a17.934222 17.934222 0 0 0-1.735111-0.085333z"  /><path fill="#24adf8" d="M478.577778 696.732444a52.565333 52.565333 0 0 1-37.390222-15.516444L285.752889 525.269333a52.906667 52.906667 0 0 1 0.128-74.680889c19.996444-19.911111 54.784-19.825778 74.680889 0.128l118.001778 118.4 250.823111-251.776c19.854222-19.968 54.698667-20.053333 74.666666-0.142222a52.423111 52.423111 0 0 1 15.530667 37.290667 52.437333 52.437333 0 0 1-15.388444 37.361778L515.982222 681.187556a53.148444 53.148444 0 0 1-37.404444 15.544888zM323.171556 463.644444a24.177778 24.177778 0 0 0-17.194667 7.096889 24.405333 24.405333 0 0 0-0.042667 34.460445l155.406222 155.932444c9.159111 9.173333 25.372444 9.187556 34.517334-0.014222L784.071111 371.768889c4.593778-4.593778 7.111111-10.723556 7.096889-17.223111s-2.56-12.615111-7.168-17.194667c-9.216-9.216-25.287111-9.187556-34.432 0.056889L478.577778 609.422222l-138.154667-138.624a24.177778 24.177778 0 0 0-17.251555-7.153778z"  /></svg>
