<?xml version="1.0" standalone="no"?><!DOCTYPE svg PUBLIC "-//W3C//DTD SVG 1.1//EN" "http://www.w3.org/Graphics/SVG/1.1/DTD/svg11.dtd"><svg class="icon" width="32px" height="29.87px" viewBox="0 0 1097 1024" version="1.1" xmlns="http://www.w3.org/2000/svg"><path fill="#24adf8" d="M1079.588571 3.584c-17.152-8.338286-39.058286 6.729143-39.058285 6.729143S60.818286 527.433143 26.148571 546.450286c-34.742857 18.980571-33.206857 58.989714-4.096 68.534857l323.291429 106.24a24.137143 24.137143 0 0 0 11.227429 2.852571 24.795429 24.795429 0 0 0 24.649142-24.941714 24.832 24.832 0 0 0-20.736-24.576l-290.852571-94.829714 909.494857-492.982857s-486.363429 573.805714-506.368 597.211428c-20.041143 23.442286-31.378286 47.725714-31.268571 78.555429-0.109714 30.793143 0.109714 236.434286 0.109714 236.434285a24.210286 24.210286 0 0 0 24.064 24.100572 24.246857 24.246857 0 0 0 24.100571-24.393143l-0.073142-0.804571c0-16.384 0.585143-215.076571 0-230.765715-0.658286-16.310857 6.290286-34.194286 13.385142-42.532571 7.058286-8.265143 533.138286-629.211429 533.138286-629.211429L889.051429 856.868571c-1.462857 7.68-6.436571 10.971429-13.385143 8.667429-7.936-2.56-283.392-89.490286-309.833143-97.828571a24.32 24.32 0 0 0-10.166857-2.267429 24.832 24.832 0 0 0-24.649143 24.978286 24.868571 24.868571 0 0 0 17.444571 23.734857l-0.109714 0.292571s288.219429 91.648 316.928 100.352c31.597714 9.508571 64.475429-11.081143 71.094857-47.396571 5.595429-29.952 155.867429-804.937143 158.098286-818.834286 2.267429-13.970286 8.265143-33.609143-14.884572-44.982857z" /></svg>
