<?xml version="1.0" standalone="no"?><!DOCTYPE svg PUBLIC "-//W3C//DTD SVG 1.1//EN" "http://www.w3.org/Graphics/SVG/1.1/DTD/svg11.dtd"><svg class="icon" width="32px" height="31.97px" viewBox="0 0 1025 1024" version="1.1" xmlns="http://www.w3.org/2000/svg"><path fill="#24adf8" d="M151.6544 154.112C183.296 158.8224 210.1248 173.4656 232.3456 197.9392c22.1184 24.576 33.1776 53.3504 33.1776 86.528 0 33.1776-11.0592 62.0544-33.1776 86.528C210.1248 395.4688 183.296 410.112 151.6544 414.8224l0 552.3456c0 12.6976-6.3488 18.944-18.944 18.944S113.7664 979.7632 113.7664 967.0656L113.7664 414.8224C82.1248 410.112 55.296 395.4688 33.1776 370.9952 11.0592 346.4192 0 317.6448 0 284.4672c0-33.1776 11.0592-61.952 33.1776-86.528C55.296 173.4656 82.1248 158.8224 113.7664 154.112L113.7664 18.944C113.7664 6.3488 120.1152 0 132.7104 0s18.944 6.3488 18.944 18.944L151.6544 154.112zM199.0656 350.8224C218.112 331.8784 227.5328 309.76 227.5328 284.4672c0-25.2928-9.5232-47.4112-28.4672-66.3552S158.0032 189.6448 132.7104 189.6448 85.2992 199.0656 66.3552 218.112 37.888 259.1744 37.888 284.4672c0 25.2928 9.5232 47.4112 28.4672 66.3552s41.0624 28.4672 66.3552 28.4672S180.1216 369.7664 199.0656 350.8224zM530.944 571.2896c31.6416 4.7104 58.4704 19.3536 80.5888 43.8272 22.1184 24.576 33.1776 53.3504 33.1776 86.528 0 33.1776-11.0592 62.0544-33.1776 86.528-22.1184 24.576-48.9472 39.1168-80.5888 43.8272l0 135.168C530.944 979.7632 524.5952 986.112 512 986.112S493.056 979.7632 493.056 967.0656l0-135.168C461.4144 827.2896 434.5856 812.6464 412.4672 788.1728 390.3488 763.5968 379.2896 734.8224 379.2896 701.6448c0-33.1776 11.0592-61.952 33.1776-86.528 22.1184-24.4736 48.9472-39.1168 80.5888-43.8272L493.056 18.944C493.056 6.3488 499.4048 0 512 0s18.944 6.3488 18.944 18.944L530.944 571.2896zM578.3552 768c18.944-18.944 28.4672-41.0624 28.4672-66.3552 0-25.2928-9.5232-47.4112-28.4672-66.3552C559.4112 616.2432 537.2928 606.8224 512 606.8224S464.5888 616.2432 445.6448 635.2896C426.7008 654.2336 417.1776 676.352 417.1776 701.6448c0 25.2928 9.5232 47.4112 28.4672 66.3552C464.5888 786.944 486.7072 796.4672 512 796.4672S559.4112 786.944 578.3552 768zM910.2336 305.7664C941.8752 310.4768 968.704 325.12 990.8224 349.5936 1012.9408 374.1696 1024 402.944 1024 436.1216c0 33.1776-11.0592 62.0544-33.1776 86.528C968.704 547.2256 941.8752 561.7664 910.2336 566.4768l0 400.5888c0 12.6976-6.3488 18.944-18.944 18.944S872.3456 979.7632 872.3456 967.0656L872.3456 566.4768C840.704 561.7664 813.8752 547.2256 791.6544 522.6496 769.536 498.176 758.4768 469.2992 758.4768 436.1216c0-33.1776 11.0592-61.952 33.1776-86.528C813.8752 325.12 840.704 310.4768 872.3456 305.7664L872.3456 18.944C872.3456 6.3488 878.592 0 891.2896 0s18.944 6.3488 18.944 18.944L910.2336 305.7664zM957.6448 502.4768C976.5888 483.5328 986.112 461.4144 986.112 436.1216c0-25.2928-9.5232-47.4112-28.4672-66.3552S916.5824 341.2992 891.2896 341.2992c-25.2928 0-47.4112 9.5232-66.3552 28.4672C805.888 388.7104 796.4672 410.9312 796.4672 436.1216c0 25.2928 9.5232 47.4112 28.4672 66.3552 18.944 18.944 41.0624 28.4672 66.3552 28.4672C916.5824 530.944 938.7008 521.5232 957.6448 502.4768z" /></svg>
