<?xml version="1.0" standalone="no"?><!DOCTYPE svg PUBLIC "-//W3C//DTD SVG 1.1//EN" "http://www.w3.org/Graphics/SVG/1.1/DTD/svg11.dtd"><svg class="icon" width="32px" height="32.00px" viewBox="0 0 1024 1024" version="1.1" xmlns="http://www.w3.org/2000/svg"><path fill="#24adf8" d="M941.258 408.245c-9.92-27.342-34.854-46.959-65.075-51.224L673.29 328.488l-87.855-172.52c-13.475-26.535-42.293-43.673-73.418-43.673-31.047 0-59.884 17.1-73.475 43.634l-87.837 172.522-202.894 28.57c-29.701 4.17-55.231 24.267-65.093 51.263-10.246 28.225-2.788 58.833 19.494 79.853L250.354 628.07l-34.239 193.464c-5.402 30.03 7.709 59.428 34.296 76.778 23.896 15.506 58.884 17.293 84.78 4.228l176.788-90.036 176.903 90.075c11.688 5.975 24.99 9.126 38.487 9.126 16.283 0 32.681-4.746 46.446-13.526 26.376-17.234 39.429-46.555 34.085-76.432L773.624 628.09l148.181-139.915c22.279-21.098 29.738-51.725 19.453-79.931zM881.22 445.27L724.08 593.66c-8.9 8.492-12.919 20.732-10.765 32.625l36.43 205.818c1.153 6.418-1.865 12.508-7.978 16.505-7.343 4.708-18.436 5.284-26.05 1.384L528.973 754.9a37.598 37.598 0 0 0-17.033-4.092c-5.96 0-11.862 1.44-16.745 3.996l-186.707 95.09c-7.305 3.728-19.416 3.132-25.876-1.057-6.479-4.228-9.536-10.376-8.343-16.928l36.41-205.78c2.077-12.028-2.018-24.209-10.919-32.605L142.774 445.25c-5.037-4.765-6.69-10.894-4.556-16.774 2.384-6.514 9.708-11.875 17.82-13.008l214.276-30.166c11.938-1.69 22.32-9.05 27.74-19.694l93.085-182.84c3.518-6.84 11.9-11.451 20.877-11.451 8.96 0 17.302 4.573 20.782 11.413l93.276 183.165c5.498 10.491 15.821 17.773 27.664 19.445l214.217 30.127c8.516 1.192 15.322 6.148 17.801 12.95 2.173 5.939 0.5 12.088-4.536 16.852z" /></svg>
