<?xml version="1.0" standalone="no"?><!DOCTYPE svg PUBLIC "-//W3C//DTD SVG 1.1//EN" "http://www.w3.org/Graphics/SVG/1.1/DTD/svg11.dtd"><svg class="icon" width="32px" height="32.00px" viewBox="0 0 1024 1024" version="1.1" xmlns="http://www.w3.org/2000/svg"><path fill="#24adf8" d="M561.438 238.168c44.508 0 87.652 8.703 128.234 25.868 39.229 16.592 74.473 40.358 104.753 70.639 30.281 30.281 54.047 65.524 70.639 104.754 17.165 40.582 25.868 83.727 25.868 128.236 0 44.508-8.703 87.652-25.868 128.234-16.592 39.229-40.358 74.472-70.639 104.753-30.28 30.281-65.523 54.046-104.753 70.639-40.581 17.165-83.726 25.868-128.234 25.868-44.509 0-87.653-8.703-128.236-25.868-39.228-16.593-74.473-40.358-104.754-70.639-30.28-30.281-54.046-65.523-70.639-104.752-17.165-40.582-25.868-83.727-25.868-128.235 0-44.509 8.703-87.653 25.868-128.236 16.592-39.229 40.358-74.473 70.639-104.754 30.281-30.28 65.524-54.046 104.754-70.639 40.582-17.165 83.727-25.868 128.236-25.868M561.438 176.77c-215.885 0-390.895 175.009-390.895 390.895 0 215.883 175.010 390.893 390.895 390.893 215.883 0 390.893-175.010 390.893-390.893 0.001-215.885-175.010-390.895-390.893-390.895v0zM541.665 548.713h225.72c16.621 0 30.096 12.988 30.096 29.008v29.008c0 16.019-13.476 29.007-30.096 29.007l-225.72 0c-16.621 0-30.096-12.987-30.096-29.007l-0-29.008c0-16.020 13.476-29.008 30.096-29.008zM536.701 302.156h29.008c16.020 0 29.008 11.955 29.008 26.702v280.37c0 14.747-12.987 26.702-29.008 26.702h-29.008c-16.020 0-29.008-11.955-29.008-26.702l0-280.371c0.001-14.746 12.988-26.701 29.008-26.701zM510 62.476c-0.085 0-0.169 0.006-0.253 0.006v-0.037c-214.197 0-393.431 149.679-438.825 350.147-0.004 0.021 0 0.043-0.002 0.063-5.483 22.321 7.823 45.050 30.127 51.084 22.437 6.070 45.531-7.037 51.89-29.316 0.064 0.011 0.108 0.019 0.108 0.019 35.463-163.054 179.886-285.421 353.177-287.061 1.245 0.109 2.503 0.176 3.777 0.176 23.495 0 42.541-19.047 42.541-42.541s-19.045-42.542-42.54-42.542z" /></svg>
