<?xml version="1.0" standalone="no"?><!DOCTYPE svg PUBLIC "-//W3C//DTD SVG 1.1//EN" "http://www.w3.org/Graphics/SVG/1.1/DTD/svg11.dtd"><svg class="icon" width="32px" height="32.00px" viewBox="0 0 1024 1024" version="1.1" xmlns="http://www.w3.org/2000/svg"><path fill="#24adf8" d="M911.275224 233.685939 825.637477 319.323686 704.59016 198.276368 790.227906 112.638622C816.453389 86.413139 859.427341 86.80945 886.152521 113.551861L910.379215 137.761325C937.104395 164.503736 937.500707 207.460456 911.275224 233.685939ZM293.012048 609.888941 414.059366 730.919028 232.479774 791.468533 293.012048 609.888941ZM801.393552 343.567611 438.28606 706.692334 317.238743 585.645016 680.363465 222.520293 801.393552 343.567611ZM179.666958 189.953826C151.166992 189.953826 127.974154 213.146665 127.974154 241.646631L127.974154 844.798277C127.974154 873.298243 151.166992 896.491082 179.666958 896.491082L782.818604 896.491082C811.31857 896.491082 834.511409 873.298243 834.511409 844.798277L834.511409 360.540082 868.973279 326.078212 868.973279 844.798277C868.973279 892.303964 830.324292 930.952951 782.818604 930.952951L179.666958 930.952951C132.161271 930.952951 93.512284 892.303964 93.512284 844.798277L93.512284 241.646631C93.512284 194.140944 132.161271 155.491957 179.666958 155.491957L698.387023 155.491957 663.925153 189.953826 179.666958 189.953826Z" /></svg>
