<?xml version="1.0" standalone="no"?><!DOCTYPE svg PUBLIC "-//W3C//DTD SVG 1.1//EN" "http://www.w3.org/Graphics/SVG/1.1/DTD/svg11.dtd"><svg class="icon" width="32px" height="32.00px" viewBox="0 0 1024 1024" version="1.1" xmlns="http://www.w3.org/2000/svg"><path fill="#24adf8" d="M679.665263 962.872969C675.413163 963.001581 667.598765 963.2272 656.935307 963.517485 639.154961 964.001508 619.950714 964.48557 600.03657 964.937329 574.44019 965.51799 549.558818 966.001798 526.108928 966.356444 483.043249 967.00775 447.182615 967.188531 421.024495 966.792926 406.443524 966.57241 395.149568 966.173867 387.624841 965.604864 384.224145 965.34771 381.80234 965.066908 380.72791 964.855669 381.194349 964.947373 381.890485 965.140388 383.258458 965.740358 390.735245 969.01955 397.00813 974.806517 397.00813 987.317073 397.00813 946.892646 397.00813 946.892646 397.00813 894.103904 397.00813 852.327012 397.00813 852.327012 397.00813 816.678624 397.00813 783.725284 397.00813 783.725284 397.00813 775.357623 397.00813 768.300672 393.959659 761.587733 388.646061 756.943787 387.096252 755.589293 384.043748 752.848371 379.704591 748.83335 372.388975 742.064213 364.215511 734.243153 355.400661 725.483543 330.191165 700.432021 304.977793 672.961018 281.499353 644.006176 238.026531 590.393216 205.693847 538.062669 189.10623 490.052535 181.047142 466.726829 176.910569 444.910645 176.910569 424.845527 176.910569 229.004458 335.671125 70.243903 531.512194 70.243903 727.353265 70.243903 886.113822 229.004458 886.113822 424.845527 886.113822 442.854963 882.465941 462.234505 875.316446 482.83136 857.948181 532.867281 820.944222 587.726451 770.158263 643.857971 744.062129 672.700896 716.032405 700.0032 688.004092 724.852435 678.2009 733.543708 669.109867 741.297751 660.971618 748.004448 656.141248 751.985137 652.740241 754.702895 651.008689 756.048719 645.047855 760.681692 641.560975 767.808055 641.560975 775.357621L641.560975 889.495936 666.01626 865.040651 384.780489 865.040651C371.274208 865.040651 360.325203 875.989653 360.325203 889.495936 360.325203 903.002217 371.274208 913.951219 384.780489 913.951219L666.01626 913.951219C679.522541 913.951219 690.471546 903.002217 690.471546 889.495936L690.471546 775.357621 681.023831 794.666526C683.113419 793.042423 686.877045 790.034895 692.077163 785.7495 700.656395 778.67939 710.193408 770.544956 720.451194 761.45065 749.739953 735.483936 779.027302 706.95664 806.427104 676.672828 861.228109 616.103652 901.60938 556.237542 921.522494 498.870214 930.372414 473.374637 935.02439 448.660785 935.02439 424.845527 935.02439 201.991897 754.365826 21.333333 531.512194 21.333333 308.658563 21.333333 128 201.991897 128 424.845527 128 450.733632 133.140183 477.842833 142.877122 506.024804 161.629467 560.300386 196.757585 617.155351 243.508777 674.811369 268.176678 705.233116 294.548672 733.966485 320.924541 760.177071 330.16457 769.359198 338.75635 777.580538 346.486466 784.73321 351.174748 789.071275 354.570415 792.120333 356.459629 793.771458L348.097562 775.357621C348.097562 783.725284 348.097562 783.725284 348.097562 816.678624 348.097559 852.32701 348.097559 852.32701 348.097559 894.103904 348.097559 946.892646 348.097559 946.892646 348.097562 987.317073 348.097562 1000.40506 354.962325 1006.738057 363.613472 1010.532303 366.137018 1011.639087 368.552418 1012.308794 371.29242 1012.847494 374.652378 1013.508083 378.769417 1013.985442 383.936862 1014.376192 392.646507 1015.034797 404.802199 1015.46375 420.284879 1015.697903 447.038784 1016.102517 483.33091 1015.919563 526.848544 1015.261421 550.431567 1014.904762 575.433585 1014.418609 601.145837 1013.835317 621.138404 1013.381779 640.415629 1012.895878 658.266276 1012.409941 668.981414 1012.118251 676.844655 1011.891221 681.143991 1011.761178 694.644098 1011.352838 705.257071 1000.077815 704.848732 986.577709 704.440393 973.077602 693.16537 962.464629 679.665263 962.872969L679.665263 962.872969ZM379.715633 552.186807 501.992055 674.46323C511.189239 683.660414 525.97641 684.04928 535.644275 675.348201L657.920698 565.299422C667.959838 556.264196 668.77367 540.801367 659.738445 530.762229 650.703219 520.723089 635.240393 519.909257 625.201252 528.944482L502.92483 638.993261 536.57705 639.878234 414.300627 517.601811C404.750244 508.051428 389.266016 508.051428 379.715633 517.601811 370.16525 527.152194 370.16525 542.636425 379.715633 552.186807L379.715633 552.186807ZM494.829269 669.398374 494.829269 877.268292 543.739838 877.268292 543.739838 669.398374 494.829269 669.398374 494.829269 669.398374Z" /></svg>
