<?xml version="1.0" standalone="no"?><!DOCTYPE svg PUBLIC "-//W3C//DTD SVG 1.1//EN" "http://www.w3.org/Graphics/SVG/1.1/DTD/svg11.dtd"><svg class="icon" width="32px" height="32.00px" viewBox="0 0 1024 1024" version="1.1" xmlns="http://www.w3.org/2000/svg"><path fill="#24adf8" d="M490.666667 234.666667c0 12.8 8.533333 21.333333 21.333333 21.333333 12.8 0 21.333333-8.533333 21.333333-21.333333 0-12.8-8.533333-21.333333-21.333333-21.333333C499.2 213.333333 490.666667 221.866667 490.666667 234.666667zM512 85.333333c42.666667 0 83.2 19.2 110.933333 49.066667l27.733333-32C616.533333 66.133333 567.466667 42.666667 512 42.666667c-57.6 0-110.933333 25.6-145.066667 68.266667l29.866667 29.866667C424.533333 106.666667 465.066667 85.333333 512 85.333333zM565.333333 198.4l27.733333-32C573.866667 142.933333 544 128 512 128c-34.133333 0-66.133333 17.066667-85.333333 42.666667l29.866667 29.866667C469.333333 183.466667 488.533333 170.666667 512 170.666667 533.333333 170.666667 552.533333 181.333333 565.333333 198.4zM234.666667 853.333333c-12.8 0-21.333333 8.533333-21.333333 21.333333 0 12.8 8.533333 21.333333 21.333333 21.333333 12.8 0 21.333333-8.533333 21.333333-21.333333C256 861.866667 247.466667 853.333333 234.666667 853.333333zM981.333333 789.333333c0-2.133333 0-6.4-2.133333-8.533333l0 0-85.333333-298.666667 0 0C891.733333 475.733333 883.2 469.333333 874.666667 469.333333l-42.666667 0L832 213.333333c0-12.8-8.533333-21.333333-21.333333-21.333333-12.8 0-21.333333 8.533333-21.333333 21.333333l0 256L234.666667 469.333333 234.666667 213.333333c0-12.8-8.533333-21.333333-21.333333-21.333333-12.8 0-21.333333 8.533333-21.333333 21.333333l0 256L149.333333 469.333333c-8.533333 0-17.066667 6.4-19.2 12.8l0 0-85.333333 298.666667 0 0C42.666667 782.933333 42.666667 787.2 42.666667 789.333333l0 42.666667 2.133333 0C44.8 838.4 42.666667 846.933333 42.666667 853.333333l0 42.666667c0 46.933333 38.4 85.333333 85.333333 85.333333l768 0c46.933333 0 85.333333-38.4 85.333333-85.333333l0-42.666667c0-6.4-2.133333-14.933333-2.133333-21.333333L981.333333 832 981.333333 789.333333zM164.266667 512l693.333333 0 72.533333 256L896 768 128 768 91.733333 768 164.266667 512zM938.666667 853.333333l0 42.666667c0 23.466667-19.2 42.666667-42.666667 42.666667L128 938.666667c-23.466667 0-42.666667-19.2-42.666667-42.666667l0-42.666667 0-42.666667 42.666667 0 768 0 42.666667 0L938.666667 853.333333zM149.333333 853.333333c-12.8 0-21.333333 8.533333-21.333333 21.333333 0 12.8 8.533333 21.333333 21.333333 21.333333 12.8 0 21.333333-8.533333 21.333333-21.333333C170.666667 861.866667 162.133333 853.333333 149.333333 853.333333zM533.333333 853.333333 320 853.333333c-12.8 0-21.333333 8.533333-21.333333 21.333333 0 12.8 8.533333 21.333333 21.333333 21.333333l213.333333 0c12.8 0 21.333333-8.533333 21.333333-21.333333C554.666667 861.866667 546.133333 853.333333 533.333333 853.333333z" /></svg>
