<?xml version="1.0" standalone="no"?><!DOCTYPE svg PUBLIC "-//W3C//DTD SVG 1.1//EN" "http://www.w3.org/Graphics/SVG/1.1/DTD/svg11.dtd"><svg class="icon" width="32px" height="32.00px" viewBox="0 0 1024 1024" version="1.1" xmlns="http://www.w3.org/2000/svg"><path fill="#24adf8" d="M23.427657 326.714514l475.428571 182.857143c4.2496 1.607314 8.6784 2.428343 13.143771 2.428343s8.892343-0.821029 13.143771-2.428343l475.428571-182.857143C1014.677943 321.285486 1024 307.713829 1024 292.571429s-9.322057-28.714057-23.427657-34.143086l-475.428571-182.857143c-8.4992-3.214629-17.786514-3.214629-26.285714 0l-475.428571 182.857143C9.322057 263.857371 0 277.429029 0 292.571429S9.322057 321.285486 23.427657 326.714514zM512 148.893257 885.535086 292.571429 512 436.2496 138.464914 292.571429 512 148.893257zM1000.572343 697.285486l-104.821029-40.321829-101.893486 39.213714L885.535086 731.428571 512 875.106743 138.464914 731.428571l91.679086-35.249371-101.893486-39.213714-104.821029 40.321829C9.322057 702.714514 0 716.286171 0 731.428571s9.322057 28.714057 23.427657 34.143086l475.428571 182.857143c4.2496 1.607314 8.6784 2.428343 13.143771 2.428343s8.892343-0.821029 13.143771-2.428343l475.428571-182.857143C1014.677943 760.142629 1024 746.570971 1024 731.428571S1014.677943 702.714514 1000.572343 697.285486zM1000.572343 477.856914l-104.821029-40.321829-101.893486 39.213714L885.535086 512 512 655.678171 138.464914 512l91.679086-35.249371-101.893486-39.213714-104.821029 40.321829C9.322057 483.285943 0 496.8576 0 512s9.322057 28.714057 23.427657 34.143086l475.428571 182.857143c4.2496 1.607314 8.6784 2.428343 13.143771 2.428343s8.892343-0.821029 13.143771-2.428343l475.428571-182.857143C1014.677943 540.714057 1024 527.1424 1024 512S1014.677943 483.285943 1000.572343 477.856914z" /></svg>
