<?xml version="1.0" standalone="no"?><!DOCTYPE svg PUBLIC "-//W3C//DTD SVG 1.1//EN" "http://www.w3.org/Graphics/SVG/1.1/DTD/svg11.dtd"><svg class="icon" width="100px" height="100.00px" viewBox="0 0 1024 1024" version="1.1" xmlns="http://www.w3.org/2000/svg"><path fill="#ffffff" d="M492.308007 472.115618c-30.688953-10.396791-56.060807-18.2302-78.641081-27.326369l0 92.958158c0 0 38.693254 39.822984 110.349247 39.822984 66.517973 0 104.369046-39.822984 104.369046-39.822984L628.385219 438.150038c-29.27679 12.399401-56.098669 25.836435-75.997881 33.966603C535.224446 481.084896 511.216659 478.764038 492.308007 472.115618L492.308007 472.115618M492.308007 472.115618 492.308007 472.115618zM693.072497 359.672686c-38.937824-15.898085-113.122407-44.957935-147.375535-58.95267-19.188015-9.546424-30.228465-4.980431-51.142797 3.394307-35.316344 13.240559-97.832166 37.489846-138.124847 52.638871-30.889521 11.475356-29.052686 20.054755-0.496304 33.56649 42.785455 20.25737 124.880195 51.427276 142.983505 58.174957 18.092054 6.753821 31.242562 6.788613 49.490158-1.348718 18.253736-8.15575 40.557718-18.627243 122.846886-52.213175l0 49.847292-15.319917 17.052374 25.452695 24.137747 27.841092-24.137747-14.505365-16.615423 0-60.238966C704.186625 379.113457 726.964398 374.301871 693.072497 359.672686L693.072497 359.672686M693.072497 359.672686 693.072497 359.672686zM816.235584 165.051103l-610.570993 0c-51.710732 0-93.640704 42.854017-93.640704 95.690386l0 356.055299c0 52.850695 41.929971 95.66685 93.640704 95.66685l226.530316 0 0 66.88227 176.267563 0 0-66.88227 207.773114 0c51.715849 0 93.624331-42.817178 93.624331-95.66685L909.859915 260.741489C909.860938 207.904097 867.951433 165.051103 816.235584 165.051103L816.235584 165.051103M510.934227 183.804213c8.443299 0 15.273868 6.831592 15.273868 15.264659 0 8.436136-6.830569 15.266705-15.273868 15.266705-8.425903 0-15.258519-6.827499-15.258519-15.266705C495.676731 190.635805 502.5073 183.804213 510.934227 183.804213L510.934227 183.804213M805.565571 692.368974l-68.278059 0c-6.359848 0-11.523451-5.179976-11.523451-11.540847 0-6.379291 5.167696-11.559267 11.523451-11.559267l68.278059 0c6.361895 0 11.524474 5.180999 11.524474 11.559267C817.089022 687.190021 811.926442 692.368974 805.565571 692.368974L805.565571 692.368974M844.921927 616.794741c0 16.940834-12.867052 30.729885-28.685319 30.729885l-610.570993 0c-15.819291 0-28.701692-13.790074-28.701692-30.729885L176.963922 260.741489c0-16.9613 12.882402-30.750351 28.701692-30.750351l610.570993 0c15.818267 0 28.685319 13.789051 28.685319 30.750351L844.921927 616.794741 844.921927 616.794741M679.090041 799.818171 342.792739 799.818171c-17.283642 0-31.314193 14.025435-31.314193 31.31317 0 17.288758 14.025435 31.308053 31.314193 31.308053l336.297302 0c17.306154 0 31.31317-14.019295 31.31317-31.308053C710.403211 813.843606 696.396195 799.818171 679.090041 799.818171L679.090041 799.818171M695.009615 268.405029 695.009615 268.405029z" /></svg>
