<?xml version="1.0" standalone="no"?><!DOCTYPE svg PUBLIC "-//W3C//DTD SVG 1.1//EN" "http://www.w3.org/Graphics/SVG/1.1/DTD/svg11.dtd"><svg class="icon" width="100px" height="100.00px" viewBox="0 0 1024 1024" version="1.1" xmlns="http://www.w3.org/2000/svg"><path fill="#ffffff" d="M873.8816 873.8816C773.7344 973.9264 653.1072 1024 512 1024c-141.1072 0-261.7344-50.0736-361.8816-150.1184C50.0736 773.8368 0 653.2096 0 512c0-141.1072 50.0736-261.7344 150.1184-361.8816C250.2656 50.0736 370.8928 0 512 0c141.1072 0 261.7344 50.0736 361.8816 150.1184C973.9264 250.2656 1024 370.8928 1024 512 1024 653.2096 973.9264 773.8368 873.8816 873.8816zM846.7456 177.2544C754.8928 85.2992 643.2768 39.424 512 39.424S269.1072 85.2992 177.2544 177.2544C85.2992 269.2096 39.424 380.7232 39.424 512c0 131.3792 45.9776 242.8928 137.8304 334.7456C269.1072 938.7008 380.7232 984.576 512 984.576s242.8928-45.8752 334.7456-137.8304C938.7008 754.8928 984.576 643.3792 984.576 512 984.576 380.7232 938.7008 269.2096 846.7456 177.2544zM782.7456 241.2544c-9.8304-6.5536-18.0224-7.3728-24.576-2.4576L423.424 416.0512 415.9488 423.424 238.7968 758.1696c-4.9152 6.5536-4.096 14.7456 2.4576 24.576C247.808 786.1248 252.7232 787.6608 256 787.6608c4.9152 0 8.192-0.8192 9.8304-2.4576l334.7456-177.2544 7.3728-7.3728 177.2544-334.7456C790.1184 259.3792 789.2992 251.0848 782.7456 241.2544zM438.1696 465.2032l120.6272 120.6272-256 135.3728L438.1696 465.2032zM585.8304 558.7968 465.2032 438.1696l256-135.3728L585.8304 558.7968z" /></svg>
