<?xml version="1.0" standalone="no"?><!DOCTYPE svg PUBLIC "-//W3C//DTD SVG 1.1//EN" "http://www.w3.org/Graphics/SVG/1.1/DTD/svg11.dtd"><svg class="icon" width="100px" height="100.00px" viewBox="0 0 1024 1024" version="1.1" xmlns="http://www.w3.org/2000/svg"><path fill="#ffffff" d="M902.4 57.6l89.6 89.6c6.4 6.4 6.4 19.2 0 32l-134.4 172.8c-6.4 6.4-19.2 12.8-32 6.4l-32-32-179.2 160 275.2 275.2c51.2 51.2 51.2 134.4 0 185.6-51.2 51.2-134.4 51.2-185.6 0l-166.4-166.4L358.4 960c-19.2 19.2-44.8 25.6-70.4 25.6-25.6 0-51.2-6.4-70.4-25.6l-128-128c-12.8-25.6-25.6-51.2-25.6-76.8 0-25.6 6.4-51.2 25.6-64L275.2 512 256 492.8c-32 6.4-64 6.4-96-6.4-38.4-6.4-70.4-25.6-96-51.2-12.8-12.8-19.2-25.6-25.6-38.4 0-6.4-6.4-6.4-6.4-12.8 0-12.8 6.4-19.2 19.2-19.2H192l25.6-44.8 25.6-44.8-25.6-44.8-25.6-44.8H51.2c-6.4 0-6.4 0-12.8-6.4s-12.8-19.2-6.4-25.6c6.4-6.4 6.4-12.8 12.8-19.2l19.2-19.2C153.6 25.6 294.4 25.6 377.6 115.2c25.6 25.6 44.8 57.6 57.6 96 6.4 32 12.8 64 6.4 96L512 384l51.2 51.2 166.4-172.8-32-32c-6.4-6.4-6.4-19.2 0-32L870.4 57.6c6.4-6.4 19.2-6.4 32 0z m-179.2 601.6c-6.4 6.4-6.4 19.2-19.2 25.6l-25.6 25.6c-12.8 12.8-32 19.2-51.2 19.2-12.8 0-25.6-6.4-38.4-12.8l-25.6 25.6 166.4 166.4c32 32 89.6 32 121.6 0s32-89.6 0-121.6l-128-128zM300.8 480l25.6-25.6c-6.4-12.8-12.8-25.6-12.8-38.4 0-19.2 6.4-38.4 19.2-51.2l25.6-25.6c12.8-12.8 25.6-19.2 38.4-19.2v-6.4c6.4-32 0-57.6-6.4-89.6-6.4-25.6-19.2-51.2-44.8-76.8-64-70.4-172.8-70.4-243.2-6.4h102.4c6.4 0 12.8 6.4 19.2 12.8l32 57.6 32 57.6c6.4 6.4 6.4 12.8 0 19.2l-32 51.2-32 57.6c-6.4 6.4-12.8 12.8-19.2 12.8H102.4c19.2 19.2 44.8 32 64 38.4 32 6.4 64 6.4 89.6 0 6.4 0 12.8 0 19.2 6.4l25.6 25.6z m435.2 313.6c-25.6 25.6-25.6 70.4 0 96 25.6 25.6 70.4 25.6 102.4 0 25.6-25.6 25.6-70.4 0-96-25.6-25.6-70.4-25.6-102.4 0z m32 32c12.8-12.8 25.6-12.8 38.4 0 12.8 12.8 12.8 25.6 0 38.4-12.8 12.8-25.6 12.8-38.4 0-6.4-12.8-6.4-32 0-38.4zM416 518.4c6.4-6.4 19.2-6.4 25.6 0 6.4 6.4 6.4 19.2 0 32l-230.4 230.4c-6.4 6.4-25.6 6.4-32 0-6.4-6.4-6.4-19.2 0-32l236.8-230.4z m76.8 83.2c6.4-6.4 19.2-6.4 32 0 6.4 6.4 6.4 19.2 0 32l-230.4 230.4c-6.4 6.4-19.2 6.4-32 0-6.4-12.8-6.4-25.6 6.4-32l224-230.4z m160 32L416 390.4l-25.6 25.6 12.8 12.8c12.8 12.8 12.8 38.4 0 51.2l-256 256c-6.4 6.4-6.4 12.8-6.4 19.2 0 6.4 0 12.8 6.4 12.8l128 128c6.4 6.4 12.8 6.4 19.2 6.4 6.4 0 12.8 0 19.2-6.4 83.2-89.6 172.8-172.8 256-262.4 6.4-6.4 32-6.4 44.8 6.4l12.8 12.8 25.6-19.2z m288-467.2l-57.6-57.6-134.4 108.8L832 300.8l108.8-134.4z"  /></svg>
