<?xml version="1.0" standalone="no"?><!DOCTYPE svg PUBLIC "-//W3C//DTD SVG 1.1//EN" "http://www.w3.org/Graphics/SVG/1.1/DTD/svg11.dtd"><svg class="icon" width="100px" height="94.03px" viewBox="0 0 1089 1024" version="1.1" xmlns="http://www.w3.org/2000/svg"><path fill="#ffffff" d="M896.373785 1023.286172 192.86148 1023.286172c-105.961441 0-191.860721-85.89928-191.860721-191.860721L1.000759 191.861721C1.000759 85.89928 86.899039 0 192.86148 0L896.373785 0c105.968439 0 191.86672 85.89928 191.86672 191.860721l0 639.56373C1088.241504 937.386892 1002.342224 1023.286172 896.373785 1023.286172zM1024.010997 200.866549c0-75.601764-57.298179-136.896979-132.905942-136.896979L202.128244 63.96957c-75.608762 0-136.896979 61.295215-136.896979 136.896979l0 620.524323c0 75.608762 61.289216 136.896979 136.896979 136.896979l688.975811 0c75.608762 0 132.905942-61.289216 132.905942-136.896979L1024.009998 200.866549zM575.207254 508.429361c0 99.962888-12.011103 121.931589-27.980251 173.883058-14.006621 51.996458-43.98839 105.910453-89.941305 161.884952-8.007069-5.992555-19.999176-14.991384-35.975322-26.982492-8.007069-5.992555-13.021859-10.021583-14.984386-11.992107 45.951916-47.96643 75.928685-95.93386 89.934307-143.90029 13.961632-45.951916 16.986903-61.922064 16.986903-155.892397L513.247199 318.564159l198.403143 0C706.329626 286.67785 696.581977 257.106983 684.035003 225.623577l65.331241-23.983215c21.437829 51.189652 25.7038 86.941029 31.696354 98.933136l-23.13242 17.99066 137.05694 0 0 63.955573L575.207254 382.519732 575.207254 508.429361zM382.342775 529.4133c29.97577-9.977593 41.967877-16.967907 71.950645-24.980974 0 23.983215 0.978764 43.003627 2.993278 56.959261-4.029028 2.014514-11.006345 4.029028-20.983938 5.998553-29.97577 8.007069-35.975322 12.989867-53.958985 18.98842l0 158.885675c1.963526 55.929509-25.019965 83.941752-80.948474 83.941752-14.006621 1.969525-34.99056 2.999277-62.951815 2.999277-2.014514-25.997729-5.998553-45.996905-11.992107-59.958537 27.961255 1.969525 48.945194 2.999277 62.951815 2.999277 25.95374 1.963526 31.946294-10.028581 29.982768-35.975322L319.385961 601.362945c-51.996458 16.021136-98.933136 28.985008-116.917798 34.977563l-5.999553-59.958537c1.969525 0 3.984039-0.984762 5.999553-2.999277 27.961255-7.962079 74.942923-18.950429 116.917798-28.97801l0-96.867634L205.460441 449.538566l0-61.960055 113.92452-1.995519L319.384961 190.652013l62.957814 0 0 194.930981 77.943199 1.995519L460.285974 449.538566l-77.943199-2.001517L382.342775 529.4133z" /></svg>
